<svg width="60" height="60" xmlns="http://www.w3.org/2000/svg" class="iconify iconify--twemoji" aria-hidden="true"><path d="M31.497 37.346a1 1 0 1 1-2 0v-25a1 1 0 0 1 2 0v25z" fill="#A7A9AC"/><path d="M14.497 35.346h31v8h-22c-6 0-9-8-9-8z" fill="#D1D3D4"/><path d="M16.497 33.346s2-5 5-9 8-8 8-8-1 11-1 16v1s-3-1-6-1-6 1-6 1z" fill="#FFAC33"/><path d="M31.497 13.346s6 6 9 11c2.771 4.618 4 9 4 9s-3-1-6-1-6 1-6 1v-1c0-9-1-19-1-19z" fill="#F4900C"/><path d="M13.497 35.346a1 1 0 1 0 0 2h33v-2h-33z" fill="#E6E7E8"/><path stroke="null" d="M2.862 30C2.862 15.012 15.012 2.86 30 2.86A27.138 27.138 0 0 1 57.138 30c0 14.988-12.15 27.138-27.138 27.138-14.988 0-27.138-12.15-27.138-27.138zm4.081.022.015.315c0 3.747 2.286 10.989 6.916 15.9 4.63 4.912 12.659 7.395 16.607 7.328 3.948-.067 11.723-2.188 16.5-6.704 4.779-4.515 6.56-11.425 6.56-15.172s-1.138-11.56-6.026-16.964c-4.888-5.403-13.65-8.532-17.398-8.532l-.438-.024c-3.747 0-12.647 3.569-17.127 8.61-4.48 5.04-5.609 11.496-5.609 15.243z" fill="#10b981"/></svg>
