<svg width="60" height="60" xmlns="http://www.w3.org/2000/svg" preserveAspectRatio="xMidYMid meet" class="iconify iconify--twemoji" role="img" aria-hidden="true">

 <g>
  <title>Layer 1</title>
  <g id="svg_9">
   <path id="svg_1" d="m31.49749,37.34605a1,1 0 1 1 -2,0l0,-25a1,1 0 0 1 2,0l0,25z" fill="#A7A9AC"/>
   <path id="svg_2" d="m14.49749,35.34605l31,0l0,8l-22,0c-6,0 -9,-8 -9,-8z" fill="#D1D3D4"/>
   <path id="svg_4" d="m16.49749,33.34605s2,-5 5,-9s8,-8 8,-8s-1,11 -1,16l0,1s-3,-1 -6,-1s-6,1 -6,1z" fill="#FFAC33"/>
   <path id="svg_5" d="m31.49749,13.34605s6,6 9,11c2.771,4.618 4,9 4,9s-3,-1 -6,-1s-6,1 -6,1l0,-1c0,-9 -1,-19 -1,-19z" fill="#F4900C"/>
   <path id="svg_6" d="m13.49749,35.34605a1,1 0 1 0 0,2l33,0l0,-2l-33,0z" fill="#E6E7E8"/>
  </g>
  <path stroke="null" id="svg_14" d="m2.86163,29.99967l0,0c0,-14.98811 12.15027,-27.13838 27.13837,-27.13838l0,0c7.19754,0 14.1003,2.85921 19.18972,7.94865c5.08943,5.08943 7.94865,11.99218 7.94865,19.18973l0,0c0,14.98811 -12.15026,27.13838 -27.13837,27.13838l0,0c-14.9881,0 -27.13837,-12.15027 -27.13837,-27.13838zm4.0815,0.02262l0.01468,0.31448c0,3.74703 2.28655,10.98928 6.91639,15.9006c4.62985,4.91131 12.65876,7.39508 16.60679,7.32808c3.94803,-0.067 11.72299,-2.18855 16.50089,-6.70414c4.77791,-4.51558 6.55876,-11.42522 6.55876,-15.17225c0,-3.74703 -1.13746,-11.56088 -6.02574,-16.96395c-4.88828,-5.40306 -13.65041,-8.53235 -17.39743,-8.53235l-0.43812,-0.02332c-3.74702,0 -12.64755,3.56808 -17.12724,8.60892c-4.47969,5.04084 -5.60898,11.49691 -5.60898,15.24393z" fill="#10b981"/>
 </g>
</svg>